<svg xmlns="http://www.w3.org/2000/svg" version="1.1" xmlns:xlink="http://www.w3.org/1999/xlink" xmlns:svgjs="http://svgjs.com/svgjs" width="1440" height="560" preserveAspectRatio="none" viewBox="0 0 1440 560"><g mask="url(&quot;#SvgjsMask1874&quot;)" fill="none"><rect width="1440" height="560" x="0" y="0" fill="rgba(255, 255, 255, 1)"></rect><rect width="60" height="60" clip-path="url(&quot;#SvgjsClipPath1875&quot;)" x="712.86" y="220.68" fill="url(#SvgjsPattern1876)" transform="rotate(291.66, 742.86, 250.68)"></rect><path d="M1010.83 291.78L1017.53 302.7 1008.35 311.62 1015.04 322.54 1005.86 331.47 1012.55 342.39 1003.37 351.31M1002.89 290.78L1009.59 301.7 1000.41 310.63 1007.1 321.55 997.92 330.47 1004.62 341.39 995.44 350.32M994.96 289.79L1001.65 300.71 992.47 309.63 999.16 320.55 989.98 329.48 996.68 340.4 987.5 349.32" stroke="rgba(249, 115, 22, 1)" stroke-width="2.74" stroke-dasharray="2, 2"></path><path d="M855.1400000000001 77.18 L775.1500000000001 200.69L727.5540753453557 51.34407534535566z" stroke="rgba(64, 158, 255, 1)" stroke-width="1" stroke-dasharray="3, 3"></path><rect width="336" height="336" clip-path="url(&quot;#SvgjsClipPath1877&quot;)" x="64.58" y="302.16" fill="url(#SvgjsPattern1878)" transform="rotate(284.11, 232.58, 470.16)"></rect><rect width="336" height="336" clip-path="url(&quot;#SvgjsClipPath1879&quot;)" x="1194.84" y="28.72" fill="url(#SvgjsPattern1880)" transform="rotate(11.05, 1362.84, 196.72)"></rect><circle r="46.666666666666664" cx="414.28" cy="275.32" fill="rgba(64, 158, 255, 1)"></circle><path d="M150.45 623.74 L187.13 470.48L277.3764851098378 655.6964851098378z" stroke="rgba(64, 158, 255, 1)" stroke-width="2.41" stroke-dasharray="3, 3"></path><circle r="46.666666666666664" cx="681.26" cy="342.87" fill="rgba(64, 158, 255, 1)"></circle><rect width="216" height="216" clip-path="url(&quot;#SvgjsClipPath1881&quot;)" x="759.65" y="379.46" fill="url(#SvgjsPattern1882)" transform="rotate(271.68, 867.65, 487.46)"></rect><rect width="360" height="360" clip-path="url(&quot;#SvgjsClipPath1883&quot;)" x="247.12" y="71.75" fill="url(#SvgjsPattern1884)" transform="rotate(102.71, 427.12, 251.75)"></rect><rect width="216" height="216" clip-path="url(&quot;#SvgjsClipPath1885&quot;)" x="1228.44" y="-2.55" fill="url(#SvgjsPattern1886)" transform="rotate(74.03, 1336.44, 105.45)"></rect><path d="M975.88 71.54a5.6 5.6 0 1 0 10.61-3.58 5.6 5.6 0 1 0-10.61 3.58zM991.04 66.43a5.6 5.6 0 1 0 10.61-3.58 5.6 5.6 0 1 0-10.61 3.58zM1006.2 61.32a5.6 5.6 0 1 0 10.61-3.58 5.6 5.6 0 1 0-10.61 3.58zM1021.36 56.2a5.6 5.6 0 1 0 10.61-3.58 5.6 5.6 0 1 0-10.61 3.58zM950.67 96.93a5.6 5.6 0 1 0 10.61-3.58 5.6 5.6 0 1 0-10.61 3.58zM965.83 91.82a5.6 5.6 0 1 0 10.62-3.58 5.6 5.6 0 1 0-10.62 3.58zM980.99 86.7a5.6 5.6 0 1 0 10.62-3.58 5.6 5.6 0 1 0-10.62 3.58zM996.15 81.59a5.6 5.6 0 1 0 10.62-3.58 5.6 5.6 0 1 0-10.62 3.58zM925.46 122.32a5.6 5.6 0 1 0 10.62-3.58 5.6 5.6 0 1 0-10.62 3.58zM940.63 117.21a5.6 5.6 0 1 0 10.61-3.58 5.6 5.6 0 1 0-10.61 3.58zM955.79 112.09a5.6 5.6 0 1 0 10.61-3.58 5.6 5.6 0 1 0-10.61 3.58zM970.95 106.98a5.6 5.6 0 1 0 10.61-3.58 5.6 5.6 0 1 0-10.61 3.58z" stroke="rgba(249, 115, 22, 1)" stroke-width="1" stroke-dasharray="3, 2"></path></g><defs><mask id="SvgjsMask1874"><rect width="1440" height="560" fill="#ffffff"></rect></mask><pattern x="0" y="0" width="60" height="6" patternUnits="userSpaceOnUse" id="SvgjsPattern1876"><rect width="60" height="3" x="0" y="0" fill="rgba(249, 115, 22, 1)"></rect><rect width="60" height="3" x="0" y="3" fill="rgba(0, 0, 0, 0)"></rect></pattern><clipPath id="SvgjsClipPath1875"><circle r="15" cx="742.86" cy="250.68"></circle></clipPath><pattern x="0" y="0" width="6" height="6" patternUnits="userSpaceOnUse" id="SvgjsPattern1878"><path d="M0 6L3 0L6 6" stroke="rgba(249, 115, 22, 1)" fill="none"></path></pattern><clipPath id="SvgjsClipPath1877"><circle r="84" cx="232.58" cy="470.16"></circle></clipPath><pattern x="0" y="0" width="6" height="6" patternUnits="userSpaceOnUse" id="SvgjsPattern1880"><path d="M3 1L3 5M1 3L5 3" stroke="rgba(249, 115, 22, 1)" fill="none" stroke-width="1.99"></path></pattern><clipPath id="SvgjsClipPath1879"><circle r="84" cx="1362.84" cy="196.72"></circle></clipPath><pattern x="0" y="0" width="6" height="6" patternUnits="userSpaceOnUse" id="SvgjsPattern1882"><path d="M3 1L3 5M1 3L5 3" stroke="rgba(249, 115, 22, 1)" fill="none" stroke-width="1"></path></pattern><clipPath id="SvgjsClipPath1881"><circle r="54" cx="867.65" cy="487.46"></circle></clipPath><pattern x="0" y="0" width="360" height="6" patternUnits="userSpaceOnUse" id="SvgjsPattern1884"><rect width="360" height="3" x="0" y="0" fill="rgba(249, 115, 22, 1)"></rect><rect width="360" height="3" x="0" y="3" fill="rgba(0, 0, 0, 0)"></rect></pattern><clipPath id="SvgjsClipPath1883"><circle r="90" cx="427.12" cy="251.75"></circle></clipPath><pattern x="0" y="0" width="6" height="6" patternUnits="userSpaceOnUse" id="SvgjsPattern1886"><path d="M0 6L3 0L6 6" stroke="rgba(64, 158, 255, 1)" fill="none"></path></pattern><clipPath id="SvgjsClipPath1885"><circle r="54" cx="1336.44" cy="105.45"></circle></clipPath></defs></svg>